<?xml version="1.0" encoding="iso-8859-1"?>
<!-- Generator: Adobe Illustrator 16.0.0, SVG Export Plug-In . SVG Version: 6.00 Build 0)  -->
<!DOCTYPE svg PUBLIC "-//W3C//DTD SVG 1.1//EN" "http://www.w3.org/Graphics/SVG/1.1/DTD/svg11.dtd">
<svg version="1.1" id="Ebene_1" xmlns="http://www.w3.org/2000/svg" xmlns:xlink="http://www.w3.org/1999/xlink" x="0px" y="0px"
	 width="499.329px" height="374.044px" viewBox="0 0 499.329 374.044" style="enable-background:new 0 0 499.329 374.044;"
	 xml:space="preserve">
<g>
	<path style="fill:#009351;" d="M199.006,281.504l11.274-29.104l11.569,27.031h23.603V3.254l-89.87,17.423l-35.771,32.795
		L85.128,17.313L3,2l15.664,92.99L39.96,73.693l-1.937,38.721l57.074,36.95l35.315,174.504l115.039,48.355v-82.793h-34.04
		c-15.613,0-28.315,12.703-28.315,28.314h-10C173.097,300.96,183.951,286.672,199.006,281.504z"/>
	<path style="fill:#E5C9A6;" d="M255.807,372.224l115.034-48.355l17.021-84.108l1.478-4.776l40.061-38.812v-62.6l-26.659-6.665
		L392.194,63.33l-46.521-42.653L255.807,3.254v276.177h34.771c15.612,0,28.314-12.699,28.314-28.311h10
		c0,21.125-17.188,38.311-38.314,38.311h-34.771V372.224"/>
</g>
<g>
</g>
<g>
</g>
<g>
</g>
<g>
</g>
<g>
</g>
<g>
</g>
</svg>
